<?xml version="1.0" encoding="utf-8"?>
<!-- Generator: Adobe Illustrator 22.0.1, SVG Export Plug-In . SVG Version: 6.00 Build 0)  -->
<svg version="1.1" id="Слой_1" xmlns="http://www.w3.org/2000/svg" xmlns:xlink="http://www.w3.org/1999/xlink" x="0px" y="0px"
	 viewBox="0 0 343.9 241.3" style="enable-background:new 0 0 343.9 241.3;" xml:space="preserve">
<style type="text/css">
	.st0{fill:#B79A7D;}
	.st1{fill:#FFFFFF;}
</style>
<g>
	<path class="st0" d="M141.1,101.2h-26.4c-2.8,4.3-6.5,9.9-10.4,15.9h31.8C136.3,111.5,138,106,141.1,101.2z"/>
	<path class="st0" d="M194.6,102.1c1,1.6,1.9,3.4,2.5,5.3c1.2,3.1,1.8,6.5,2,9.9H235l-4.2-6.3l-2.2-3.4l-4.1-6.2h-30.4
		C194.3,101.5,194.5,101.8,194.6,102.1z"/>
	<path class="st0" d="M101.9,120.8c-3.6,5.5-7.3,11.1-10.4,15.9h50.5c-3.3-4.6-5.4-10-5.8-15.9H101.9z"/>
	<path class="st0" d="M237.4,120.8h-38.3c-0.4,5.9-2.5,11.4-5.8,15.9h54.6L237.4,120.8z"/>
	<path class="st1" d="M193.7,108.6c-0.6-1.6-1.4-3.2-2.3-4.7c-0.4-0.6-0.7-1.2-1.2-1.8c0,0,0,0,0,0l-1.8-2.7l-2.8-4.2l-5.3-8
		l-2.1-3.2l8.5-13l17.5,26.6h17.7l-26.4-40.1l-8.9-13.5l-8.9,13.5l-8.5,13l-8.5-13l-8.9-13.5l-8.9,13.5l-26.2,40.1h17.7L152.1,71
		l12.8,19.5c0,0,14.7,21.3,15.4,23.4c0.6,1.7,0.9,3.5,0.7,5.4c-0.4,6.7-5.8,12.2-12.5,12.7c-8,0.6-14.7-5.7-14.7-13.6
		c0-7.5,6.1-13.6,13.6-13.6c0.9,0,1.7,0.1,2.5,0.2l-9.1-13.9c-12.4,3-21.6,14.3-21.4,27.7c0.2,15.1,12.5,27.4,27.6,27.6
		c15.7,0.2,28.4-12.4,28.4-28C195.5,114.9,194.9,111.6,193.7,108.6z"/>
	<g>
		<path class="st1" d="M80.6,159.9v26.3H74v-14.2l-6.4,10.6h-0.7l-6.4-10.5v14.1h-6.7v-26.3h6.7l6.7,11.2l6.7-11.2H80.6z"/>
		<path class="st1" d="M100.9,186.2l-1.1-3.8H91l-1.1,3.8h-7.3l8.7-26.3h8.2l8.7,26.3H100.9z M92.7,176.7H98l-2.7-8.9L92.7,176.7z"
			/>
		<path class="st1" d="M125.6,159.9v6.5h-8.8v19.8H110v-26.3H125.6z"/>
		<path class="st1" d="M142.4,186.2V173l-9.3,13.2h-5.2v-26.3h6.7v13.2l9.3-13.2h5.2v26.3H142.4z"/>
		<path class="st1" d="M166,186.8c-4,0-7.2-1.3-9.8-3.9c-2.6-2.6-3.9-5.9-3.9-9.8s1.3-7.2,3.9-9.8c2.6-2.6,5.9-3.9,9.8-3.9
			c2.4,0,4.6,0.6,6.6,1.7c2,1.1,3.6,2.6,4.8,4.5l-5.8,3.3c-0.5-0.9-1.2-1.7-2.2-2.2s-2.1-0.8-3.3-0.8c-2.1,0-3.8,0.7-5.1,2
			s-1.9,3-1.9,5.2c0,2.1,0.6,3.9,1.9,5.2c1.3,1.3,3,2,5.1,2c1.2,0,2.3-0.3,3.3-0.8c1-0.5,1.7-1.3,2.2-2.2l5.8,3.4
			c-1.2,1.9-2.7,3.5-4.8,4.6C170.6,186.3,168.4,186.8,166,186.8z"/>
		<path class="st1" d="M197.9,159.9v6.5h-6.5v19.8h-6.7v-19.8h-6.5v-6.5H197.9z"/>
		<path class="st1" d="M210.6,159.9c2.7,0,4.9,0.9,6.7,2.6c1.8,1.7,2.7,3.9,2.7,6.6c0,2.7-0.9,4.9-2.7,6.6c-1.8,1.7-4,2.6-6.7,2.6
			h-3.5v7.9h-6.7v-26.3H210.6z M210.6,172c0.8,0,1.4-0.3,1.9-0.8c0.5-0.5,0.8-1.2,0.8-2c0-0.8-0.3-1.5-0.8-2s-1.1-0.8-1.9-0.8h-3.5
			v5.6H210.6z"/>
		<path class="st1" d="M236.2,186.2l-1.1-3.8h-8.8l-1.1,3.8h-7.3l8.7-26.3h8.2l8.7,26.3H236.2z M228.1,176.7h5.3l-2.7-8.9
			L228.1,176.7z"/>
		<path class="st1" d="M244.2,186.2V180c1.4,0.2,2.4,0,3.1-0.6c0.6-0.6,1-1.8,1-3.7v-15.7h18.7v26.3h-6.7v-19.8h-5.3v9.5
			c0,2.2-0.3,4-0.9,5.5c-0.6,1.5-1.5,2.6-2.5,3.3s-2.2,1.2-3.4,1.4C246.9,186.4,245.6,186.4,244.2,186.2z"/>
		<path class="st1" d="M281.2,167.8c2.7,0,4.9,0.9,6.7,2.6c1.8,1.7,2.7,3.9,2.7,6.6s-0.9,4.9-2.7,6.6c-1.8,1.7-4,2.6-6.7,2.6H271
			v-26.3h6.7v7.9H281.2z M281.2,179.8c0.8,0,1.4-0.3,1.9-0.8s0.8-1.2,0.8-2c0-0.8-0.3-1.5-0.8-2c-0.5-0.5-1.1-0.8-1.9-0.8h-3.5v5.6
			H281.2z"/>
	</g>
</g>
</svg>
